<svg width="512" height="512" viewBox="0 0 512 512" fill="none" xmlns="http://www.w3.org/2000/svg">
  <rect width="512" height="512" rx="100" fill="#2c3b67"/>
  <path d="M128 128h96c17.7 0 32 14.3 32 32v96c0 17.7-14.3 32-32 32h-96c-17.7 0-32-14.3-32-32v-96c0-17.7 14.3-32 32-32zM288 128h96c17.7 0 32 14.3 32 32v96c0 17.7-14.3 32-32 32h-96c-17.7 0-32-14.3-32-32v-96c0-17.7 14.3-32 32-32zM128 288h96c17.7 0 32 14.3 32 32v96c0 17.7-14.3 32-32 32h-96c-17.7 0-32-14.3-32-32v-96c0-17.7 14.3-32 32-32zM288 288h96c17.7 0 32 14.3 32 32v96c0 17.7-14.3 32-32 32h-96c-17.7 0-32-14.3-32-32v-96c0-17.7 14.3-32 32-32z" fill="white"/>
</svg>